<svg xmlns="http://www.w3.org/2000/svg" version="1.1" xmlns:xlink="http://www.w3.org/1999/xlink" width="102" height="102"><svg xmlns="http://www.w3.org/2000/svg" version="1.1" xmlns:xlink="http://www.w3.org/1999/xlink" width="102" height="102"><svg width="102" height="102" viewBox="0 0 102 102" fill="none" xmlns="http://www.w3.org/2000/svg">
<rect width="102" height="102" rx="14" fill="#1A1A33"></rect>
<path d="M15.0133 42.0149C14.3322 41.3391 14 40.5315 14 39.5425V34.1528C14 33.1803 14.3322 32.3562 15.0133 31.6804C15.6943 31.0046 16.4916 30.675 17.4053 30.675H20.1627C21.0763 30.675 21.8736 31.0046 22.5547 31.6804C23.2357 32.3562 23.5679 33.1803 23.5679 34.1528V38.4382C23.5679 39.3448 23.9002 40.1359 24.5812 40.8117C25.2623 41.4875 26.0762 41.8171 27.0729 41.8171H28.734C29.6476 41.8171 30.4449 42.1468 31.1259 42.8225C31.807 43.4983 32.1392 44.3224 32.1392 45.2949V79.5289C32.1392 80.4355 31.807 81.2266 31.1259 81.9024C30.4449 82.5782 29.6476 82.9078 28.734 82.9078H25.9765C25.0629 82.9078 24.249 82.5782 23.5845 81.9024C22.9035 81.2266 22.5713 80.4355 22.5713 79.5289V43.0203H17.4219C16.5083 43.0203 15.7109 42.6907 15.0299 42.0149H15.0133ZM23.5679 18.956C22.8869 19.5988 22.5547 20.4064 22.5547 21.3789V26.7687C22.5547 27.7411 22.8869 28.5652 23.5679 29.241C24.249 29.9168 25.0463 30.2464 25.9599 30.2464H28.7173C29.6309 30.2464 30.4283 29.9168 31.1093 29.241C31.7904 28.5652 32.1226 27.7411 32.1226 26.7687V21.3789C32.1226 20.4064 31.7904 19.5988 31.1093 18.956C30.4283 18.3132 29.6309 18 28.7173 18H25.9599C25.0463 18 24.2324 18.3132 23.5679 18.956Z" fill="#FF6745"></path>
<path d="M39.1525 70.7601C38.4714 70.0843 38.1392 69.2932 38.1392 68.3866V45.2947C38.1392 44.3223 38.4714 43.4981 39.1525 42.8224C39.8335 42.1466 40.6309 41.8169 41.5445 41.8169H43.2886C44.2022 41.8169 44.9996 41.4873 45.6806 40.8115C46.3617 40.1357 46.6939 39.3446 46.6939 38.438V34.1526C46.6939 33.1801 47.0261 32.356 47.7072 31.6802C48.3882 31.0045 49.1855 30.6748 50.0991 30.6748H75.9624C76.8761 30.6748 77.6734 31.0045 78.3544 31.6802C79.0355 32.356 79.3677 33.1801 79.3677 34.1526V38.438C79.3677 39.3446 79.6999 40.1357 80.381 40.8115C81.062 41.4873 81.8594 41.8169 82.773 41.8169H84.5171C85.4307 41.8169 86.228 42.1466 86.9091 42.8224C87.5901 43.4981 87.9224 44.3223 87.9224 45.2947V68.3866C87.9224 69.2932 87.5901 70.0843 86.9091 70.7601C86.228 71.4359 85.4307 71.7655 84.5171 71.7655H82.773C81.8594 71.7655 81.062 72.0952 80.381 72.7709C79.6999 73.4467 79.3677 74.2708 79.3677 75.2433V79.5287C79.3677 80.4353 79.0355 81.2264 78.3544 81.9022C77.6734 82.578 76.8761 82.9076 75.9624 82.9076H50.0991C49.1855 82.9076 48.3716 82.578 47.7072 81.9022C47.0261 81.2264 46.6939 80.4353 46.6939 79.5287V75.2433C46.6939 74.2708 46.3617 73.4467 45.6806 72.7709C44.9996 72.0952 44.2022 71.7655 43.2886 71.7655H41.5445C40.6309 71.7655 39.8335 71.4359 39.1525 70.7601ZM78.3378 70.6612V42.9048H47.6905V70.6612H78.3378Z" fill="#FF6745"></path>
</svg></svg><style>@media (prefers-color-scheme: light) { :root { filter: none; } }
@media (prefers-color-scheme: dark) { :root { filter: none; } }
</style></svg>